<svg xmlns="http://www.w3.org/2000/svg" xmlns:xlink="http://www.w3.org/1999/xlink" viewBox="0 0 70.53 31.87"><defs><style>.cls-1{fill:#666;}.cls-2{fill:url(#Dégradé_sans_nom_5);}.cls-3{fill:#999;}.cls-4{fill:#fff;}.cls-5{fill:#036;}.cls-6{fill:#e9fffe;}.cls-7{fill:#ccc;}.cls-8{fill:#fc3;}.cls-9{fill:#e2e2e2;}</style><linearGradient id="Dégradé_sans_nom_5" x1="0.03" y1="-173.07" x2="70.3" y2="-173.07" gradientTransform="matrix(1, 0, 0, -1, 0, -157.33)" gradientUnits="userSpaceOnUse"><stop offset="0" stop-color="#f0f4ff"/><stop offset="1" stop-color="#aaf4ff"/></linearGradient></defs><title>cheque</title><g id="Calque_2" data-name="Calque 2"><g id="Calque_2-2" data-name="Calque 2"><rect class="cls-1" x="0.21" y="0.36" width="70.32" height="31.51"/><rect class="cls-2" x="0.03" y="0.03" width="70.28" height="31.42"/><path class="cls-3" d="M70.33,31.47H0V0H70.33V31.47Zm-70.28,0H70.28V.05H.05Z"/><rect class="cls-4" x="0.03" y="27.97" width="70.28" height="3.47"/><polygon class="cls-3" points="49.21 12.76 2.3 12.76 2.3 12.54 48.99 12.54 48.99 11.66 49.21 11.66 49.21 12.76"/><polygon class="cls-3" points="49.21 10.27 22.72 10.27 22.72 10.06 48.99 10.06 48.99 9.18 49.21 9.18 49.21 10.27"/><polygon class="cls-3" points="49.21 15.31 23.93 15.31 23.93 15.1 48.99 15.1 48.99 14.21 49.21 14.21 49.21 15.31"/><path class="cls-5" d="M6.26,4a.11.11,0,0,0-.12-.07A.15.15,0,0,0,6,4,.23.23,0,0,0,6,4.1c0,.05,0,.13,0,.23v.75c0,.1,0,.18,0,.23A.23.23,0,0,0,6,5.44a.15.15,0,0,0,.1,0,.12.12,0,0,0,.09,0,.13.13,0,0,0,0-.09.57.57,0,0,0,0-.16c0-.07,0-.16,0-.27h.56v.17a1,1,0,0,1-.06.38.61.61,0,0,1-.17.24.57.57,0,0,1-.23.12l-.28,0a1.18,1.18,0,0,1-.4,0,.52.52,0,0,1-.24-.2,1,1,0,0,1-.12-.36,4.11,4.11,0,0,1,0-.53,4,4,0,0,1,0-.54,1,1,0,0,1,.14-.36.47.47,0,0,1,.24-.2,1.08,1.08,0,0,1,.38-.06.87.87,0,0,1,.34.05.55.55,0,0,1,.22.14A.54.54,0,0,1,6.83,4a1.29,1.29,0,0,1,0,.29v.14H6.3V4.27A.51.51,0,0,0,6.26,4Z"/><path class="cls-5" d="M7.67,3.59v.82H8V3.59h.58V5.82H8V4.9H7.67v.92H7.09V3.59Z"/><path class="cls-5" d="M10.2,3.59v.48H9.46v.38h.7V4.9h-.7v.45h.77v.47H8.88V3.59ZM9.65,3l.13.45H9.42L9.12,3Z"/><path class="cls-5" d="M11.38,5.84h-.2a1,1,0,0,1-.38-.06.6.6,0,0,1-.25-.2,1.08,1.08,0,0,1-.13-.36,2.79,2.79,0,0,1,0-.53,2.83,2.83,0,0,1,0-.54,1.17,1.17,0,0,1,.13-.36.6.6,0,0,1,.25-.2,1,1,0,0,1,.38-.06,1,1,0,0,1,.37.06.6.6,0,0,1,.25.2,1.17,1.17,0,0,1,.13.36,2.83,2.83,0,0,1,0,.54,2.83,2.83,0,0,1,0,.54.85.85,0,0,1-.15.36l.27.27-.35.3ZM11,5.08c0,.1,0,.18,0,.23a.23.23,0,0,0,.06.13.17.17,0,0,0,.1,0,.18.18,0,0,0,.11,0,.32.32,0,0,0,.06-.13s0-.13,0-.23V4.33c0-.1,0-.17,0-.23s0-.1-.06-.12a.14.14,0,0,0-.11,0,.13.13,0,0,0-.1,0A.17.17,0,0,0,11,4.1c0,.06,0,.13,0,.23v.75Z"/><path class="cls-5" d="M12.74,5.2a.39.39,0,0,0,0,.22.19.19,0,0,0,.13,0,.17.17,0,0,0,.13,0,.37.37,0,0,0,.05-.22V3.59h.58V5.05a1.37,1.37,0,0,1-.05.39.56.56,0,0,1-.15.25.41.41,0,0,1-.23.13,1.66,1.66,0,0,1-.33,0,1.47,1.47,0,0,1-.32,0,.41.41,0,0,1-.24-.13.55.55,0,0,1-.14-.25,1.09,1.09,0,0,1-.05-.39V3.59h.58V5.2Z"/><path class="cls-5" d="M15.24,3.59v.48H14.5v.38h.69V4.9H14.5v.45h.77v.47H13.92V3.59Z"/><path class="cls-5" d="M17.19,3.59a.62.62,0,0,1,.46.15.56.56,0,0,1,.15.41,1.11,1.11,0,0,1,0,.17,1,1,0,0,1-.07.15.35.35,0,0,1-.1.11l-.16.07h0a.48.48,0,0,1,.18.06.3.3,0,0,1,.13.12.48.48,0,0,1,.08.16,1,1,0,0,1,0,.17.77.77,0,0,1,0,.27.45.45,0,0,1-.12.21.58.58,0,0,1-.2.13,1,1,0,0,1-.31.05h-.88V3.59ZM17,4.47a.17.17,0,0,0,.14-.07.3.3,0,0,0,0-.16.28.28,0,0,0,0-.16A.15.15,0,0,0,17,4h-.14v.46Zm0,.93a.2.2,0,0,0,.15-.06.33.33,0,0,0,.06-.21.28.28,0,0,0-.06-.2.18.18,0,0,0-.15-.07h-.16V5.4Z"/><path class="cls-5" d="M19.18,3.59l.54,2.23h-.61l-.06-.39h-.47l-.06.39h-.6l.53-2.23Zm-.37.46L18.65,5H19l-.16-.94Z"/><path class="cls-5" d="M20.47,3.59,20.85,5h0V3.59h.55V5.82h-.64l-.39-1.38h0V5.82h-.54V3.59Z"/><path class="cls-5" d="M22.52,4a.11.11,0,0,0-.12-.07.15.15,0,0,0-.1,0,.23.23,0,0,0-.06.13.67.67,0,0,0,0,.23c0,.1,0,.23,0,.37s0,.28,0,.38a.67.67,0,0,0,0,.23.23.23,0,0,0,.06.13.15.15,0,0,0,.1,0,.12.12,0,0,0,.09,0,.13.13,0,0,0,.05-.09,1.57,1.57,0,0,0,0-.16c0-.07,0-.16,0-.27h.56v.17a1,1,0,0,1-.06.38.74.74,0,0,1-.17.24.55.55,0,0,1-.24.12l-.27,0a1.18,1.18,0,0,1-.4,0,.52.52,0,0,1-.24-.2,1,1,0,0,1-.12-.36,4.11,4.11,0,0,1,0-.53,4,4,0,0,1,0-.54.85.85,0,0,1,.14-.36.47.47,0,0,1,.24-.2,1.08,1.08,0,0,1,.38-.06.9.9,0,0,1,.34.05.55.55,0,0,1,.22.14.43.43,0,0,1,.12.22.88.88,0,0,1,0,.29v.14h-.56V4.27A.51.51,0,0,0,22.52,4Z"/><path class="cls-5" d="M24.44,3.59,25,5.82h-.62l-.06-.39h-.46l-.06.39h-.61l.53-2.23Zm-.36.46L23.92,5h.32l-.16-.94Z"/><path class="cls-5" d="M25.64,3.59V5.82h-.58V3.59Z"/><path class="cls-5" d="M26.81,3.59a.79.79,0,0,1,.28,0,.43.43,0,0,1,.19.13.39.39,0,0,1,.1.19.59.59,0,0,1,0,.23.7.7,0,0,1-.09.37.4.4,0,0,1-.29.16h0a.32.32,0,0,1,.28.15.59.59,0,0,1,.08.35V5.5a.28.28,0,0,0,0,.09v.08s0,0,0,0l0,0,0,0v0h-.62a.3.3,0,0,1,0-.1s0-.08,0-.12,0-.08,0-.12V5.25a.71.71,0,0,0,0-.16.24.24,0,0,0,0-.1l-.06,0h-.24v.89H25.9V3.59Zm-.22.94a.22.22,0,0,0,.19-.07.29.29,0,0,0,.06-.19.27.27,0,0,0-.06-.2A.25.25,0,0,0,26.59,4h-.11v.52Z"/><path class="cls-5" d="M29,3.59v.48h-.74v.38H29V4.9h-.69v.45H29v.47H27.69V3.59Z"/><path class="cls-5" d="M63.39,6.59l-.3.6a1.29,1.29,0,0,0-.92-.42.94.94,0,0,0-.74.35,1.59,1.59,0,0,0-.33.77h1.73l-.17.42H61.05s0,0,0,.09v.15c0,.12,0,.19,0,.21h1.52l-.17.41H61.08a1.71,1.71,0,0,0,.34.84,1,1,0,0,0,.8.37,1.29,1.29,0,0,0,.55-.1,2.18,2.18,0,0,0,.44-.33v.73a1.79,1.79,0,0,1-1,.29,1.76,1.76,0,0,1-1.37-.54,2.21,2.21,0,0,1-.54-1.26h-.5L60,8.76h.3s0-.07,0-.1V8.44s0-.08,0-.13h-.47L60,7.89h.35a2.44,2.44,0,0,1,.6-1.2,1.71,1.71,0,0,1,1.29-.5A2.09,2.09,0,0,1,63.39,6.59Z"/><path class="cls-5" d="M52.76,13.29l-.13.26a.54.54,0,0,0-.39-.18.39.39,0,0,0-.32.15.72.72,0,0,0-.15.33h.75l-.07.19h-.7v.19h.66l-.07.18h-.58a.85.85,0,0,0,.15.36.42.42,0,0,0,.35.16.53.53,0,0,0,.23,0,1,1,0,0,0,.2-.15v.32a.82.82,0,0,1-.43.12.75.75,0,0,1-.6-.23,1,1,0,0,1-.23-.54h-.22l.08-.18h.13V14h-.21l.08-.18h.15a1,1,0,0,1,.26-.52.76.76,0,0,1,.56-.21A.94.94,0,0,1,52.76,13.29Z"/><rect class="cls-6" x="53.12" y="11.87" width="16.05" height="4.61"/><path class="cls-7" d="M69.48,16.79H52.81V11.56H69.48Zm-16-.62H68.86v-4H53.44Z"/><rect class="cls-3" x="53.28" y="18.22" width="16.17" height="0.21"/><rect class="cls-3" x="53.28" y="19.99" width="16.17" height="0.21"/><path class="cls-3" d="M19.28,24.88H1.05V17.15H19.28Zm-18-.21h17.8v-7.3H1.27Z"/><rect class="cls-8" x="30.17" y="4.57" width="39" height="0.43"/><polygon class="cls-8" points="2.48 5.96 1.74 4.67 2.48 3.38 3.97 3.38 4.72 4.67 3.97 5.96 2.48 5.96"/><rect class="cls-5" x="1.58" y="9.49" width="19.63" height="0.46"/><rect class="cls-5" x="1.58" y="10.86" width="21.46" height="0.46"/><rect class="cls-5" x="1.58" y="14.97" width="21.46" height="0.46"/><rect class="cls-5" x="1.58" y="19.08" width="15.98" height="0.46"/><rect class="cls-5" x="1.58" y="20.91" width="12.79" height="0.46"/><rect class="cls-5" x="1.58" y="22.74" width="9.59" height="0.46"/><rect class="cls-9" x="1.12" y="29.13" width="10.96" height="1.37"/><rect class="cls-9" x="13.91" y="29.13" width="10.96" height="1.37"/><rect class="cls-9" x="26.24" y="29.13" width="15.98" height="1.37"/><rect x="21.67" y="18.17" width="7.76" height="0.91"/><rect x="21.67" y="20.91" width="9.59" height="0.46"/><rect x="21.67" y="22.74" width="6.39" height="0.91"/></g></g></svg>